<?xml version="1.0" encoding="UTF-8" standalone="no"?>
<!-- Created with Inkscape (http://www.inkscape.org/) -->

<svg
   width="59.627537mm"
   height="59.627541mm"
   viewBox="0 0 59.627537 59.627541"
   version="1.1"
   id="svg1"
   xml:space="preserve"
   inkscape:version="1.4.2 (f4327f4, 2025-05-13)"
   sodipodi:docname="JuFoLogo.svg"
   xmlns:inkscape="http://www.inkscape.org/namespaces/inkscape"
   xmlns:sodipodi="http://sodipodi.sourceforge.net/DTD/sodipodi-0.dtd"
   xmlns="http://www.w3.org/2000/svg"
   xmlns:svg="http://www.w3.org/2000/svg"><sodipodi:namedview
     id="namedview1"
     pagecolor="#ffffff"
     bordercolor="#000000"
     borderopacity="0.25"
     inkscape:showpageshadow="2"
     inkscape:pageopacity="0.0"
     inkscape:pagecheckerboard="0"
     inkscape:deskcolor="#d1d1d1"
     inkscape:document-units="mm"
     inkscape:zoom="0.97386897"
     inkscape:cx="466.69523"
     inkscape:cy="294.18742"
     inkscape:window-width="1920"
     inkscape:window-height="991"
     inkscape:window-x="1699"
     inkscape:window-y="-9"
     inkscape:window-maximized="1"
     inkscape:current-layer="layer1"><inkscape:page
       x="0"
       y="0"
       width="59.627537"
       height="59.627541"
       id="page2"
       margin="0"
       bleed="0" /></sodipodi:namedview><defs
     id="defs1" /><g
     inkscape:label="Layer 1"
     inkscape:groupmode="layer"
     id="layer1"
     transform="translate(-76.280625,-109.49817)"><circle
       style="fill:#ec1a25;fill-opacity:1;stroke-width:0.279852"
       id="path2"
       cx="106.09439"
       cy="139.31194"
       r="29.813765" /><g
       id="g25"
       transform="translate(-71.134075,-57.579951)"><path
         id="path2-8"
         style="fill:#ffffff;fill-opacity:1;stroke-width:0.2748"
         d="m 176.01602,219.94282 -0.36484,0.01 -0.009,1.45314 c -0.009,1.40604 0.019,2.0042 0.0956,2.0314 0.0174,0.006 0.0224,0.0256 0.0114,0.0434 -0.042,0.0679 0.17033,0.41842 0.37827,0.62425 0.24846,0.24591 0.52315,0.38424 0.90795,0.45734 0.28217,0.0537 0.78921,0.0452 1.0542,-0.0171 l 5.2e-4,-5.1e-4 c 0.50424,-0.11868 0.89337,-0.40005 1.08159,-0.78239 0.19539,-0.3969 0.20585,-0.51555 0.19585,-2.24792 l -0.009,-1.56166 h -0.36742 -0.36742 l -0.0171,1.603 c -0.0166,1.55472 -0.0198,1.60888 -0.092,1.80144 -0.0409,0.1092 -0.12248,0.24823 -0.18138,0.30903 -0.20515,0.21167 -0.68565,0.31776 -1.09606,0.24236 -0.11939,-0.0221 -0.24959,-0.0424 -0.28939,-0.0444 -0.0327,-0.002 -0.0592,-0.01 -0.0656,-0.0181 -1.7e-4,-2.8e-4 -9.1e-4,-0.001 -0.001,-0.002 v -5.2e-4 -5.1e-4 -5.2e-4 -5.2e-4 -5.1e-4 -5.2e-4 -5.2e-4 -5.1e-4 -5.2e-4 c -0.002,-0.0141 -0.057,-0.0714 -0.12558,-0.13178 -0.0744,-0.0654 -0.17052,-0.20192 -0.22272,-0.31574 l -0.092,-0.2005 -0.004,-1.60197 c -0.002,-0.88121 -0.0152,-1.61446 -0.03,-1.62936 -0.0148,-0.0146 -0.19123,-0.0226 -0.3917,-0.0176 z" /><path
         id="path25"
         style="fill:#ffffff;fill-opacity:1;stroke-width:0.2748"
         d="m 174.44402,219.83637 c -0.0965,-6.1e-4 -0.10704,0.0101 -0.12454,0.12454 -0.0977,0.63794 -0.3019,1.94081 -0.3545,2.26239 -0.036,0.22041 -0.0821,0.50602 -0.10232,0.63459 -0.0518,0.32989 -0.15901,0.62143 -0.26097,0.71003 -0.26317,0.2287 -0.81092,0.14192 -0.98495,-0.15606 -0.0518,-0.0888 -0.0645,-0.16887 -0.0615,-0.3669 0.002,-0.1395 0.0111,-0.30297 0.0202,-0.36277 0.0119,-0.0796 0.001,-0.11615 -0.0398,-0.13695 -0.0639,-0.0324 -0.64168,-0.11708 -0.68781,-0.1018 l -5.2e-4,5.2e-4 -5.2e-4,5.2e-4 c -0.008,0.008 -0.0328,0.14443 -0.0558,0.30385 -0.12374,0.85577 0.31711,1.43356 1.18959,1.55856 0.29827,0.0427 0.41103,0.0406 0.66146,-0.0124 0.26642,-0.0564 0.53882,-0.23182 0.67748,-0.43615 0.20719,-0.30531 0.23785,-0.44287 0.59583,-2.68717 0.0454,-0.28469 0.10706,-0.67248 0.13746,-0.86196 0.0297,-0.18356 0.0457,-0.34304 0.0377,-0.36174 v -5.2e-4 H 175.09 l -5.2e-4,-5.1e-4 c -0.0323,-0.026 -0.51886,-0.10928 -0.64492,-0.11007 z" /><path
         id="path24"
         style="fill:#ffffff;fill-opacity:1;stroke-width:0.2748"
         d="m 182.19187,219.38471 c -0.22251,0.002 -0.45514,0.0366 -0.68316,0.10439 -0.5852,0.17376 -1.082,0.5893 -1.3193,1.10226 -0.15554,0.33634 -0.22184,0.68995 -0.20154,1.079 0.0223,0.42735 0.0377,0.51558 0.14676,0.83664 0.30613,0.90076 0.9854,1.51419 1.80867,1.6335 0.21971,0.0318 0.46917,0.015 0.77257,-0.0522 v 5.2e-4 c 0.11939,-0.0264 0.32256,-0.0984 0.45113,-0.15968 0.23649,-0.11281 0.53438,-0.36605 0.49868,-0.42375 -0.005,-0.007 -0.005,-0.0136 -0.003,-0.0176 v -5.1e-4 l 5.2e-4,-5.2e-4 v -5.2e-4 l 5.1e-4,-5.1e-4 5.2e-4,-5.2e-4 5.2e-4,-5.2e-4 c 0.005,-0.003 0.0127,-0.004 0.0238,-0.002 0.0236,0.005 0.0942,-0.0864 0.15658,-0.20309 0.12918,-0.24155 0.13862,-0.23944 0.2899,0.0543 0.0497,0.0966 0.10206,0.18268 0.11576,0.19068 l 5.1e-4,5.2e-4 h 5.2e-4 c 0.0324,0.01 0.43222,-0.0762 0.45992,-0.0992 0.005,-0.004 -0.10494,-0.41194 -0.24443,-0.90589 -0.13949,-0.49396 -0.28101,-1.00074 -0.31471,-1.12603 -0.0337,-0.12529 -0.0675,-0.23384 -0.0754,-0.24184 -0.0159,-0.0159 -0.12393,0.0115 -0.99425,0.25166 -0.735,0.20282 -0.83509,0.23722 -0.83509,0.28422 0,0.0495 0.12229,0.48455 0.14159,0.50385 h 5.2e-4 l 5.2e-4,5.1e-4 5.1e-4,5.2e-4 c 0.0173,0.006 0.12175,-0.019 0.24081,-0.0558 0.12491,-0.0386 0.25853,-0.0767 0.29663,-0.0837 0.0381,-0.007 0.1674,-0.0425 0.28732,-0.0786 0.35041,-0.10551 0.3444,-0.10664 0.3762,0.0646 0.0492,0.2656 0.0135,0.59891 -0.0842,0.7891 -0.0469,0.0913 -0.0747,0.17797 -0.0646,0.19637 v 5.2e-4 h 5.2e-4 v 5.2e-4 c 0.003,0.004 0.005,0.007 0.006,0.009 v 5.2e-4 5.1e-4 5.2e-4 5.2e-4 h -5.1e-4 v 5.1e-4 h -5.2e-4 -5.2e-4 -5.1e-4 -5.2e-4 c -0.004,0 -0.0102,-0.002 -0.0202,-0.008 -0.023,-0.0132 -0.0554,0.006 -0.076,0.0439 -0.0198,0.037 -0.11571,0.11815 -0.21291,0.18035 -0.43674,0.27938 -1.01351,0.33631 -1.40663,0.13849 -0.50368,-0.25346 -0.89483,-0.91916 -0.98133,-1.66966 -0.0838,-0.72653 0.16124,-1.26627 0.69659,-1.53428 0.24723,-0.12373 0.44345,-0.16222 0.74259,-0.14572 0.40503,0.0223 0.61034,0.14226 0.89349,0.52193 0.05,0.0671 0.0505,0.0672 0.30076,-0.0103 0.13776,-0.0427 0.29246,-0.094 0.34416,-0.1142 l 0.0941,-0.0367 -0.0879,-0.16175 c -0.16913,-0.31075 -0.57275,-0.64638 -0.91829,-0.76378 -0.18841,-0.064 -0.40075,-0.095 -0.62322,-0.093 z" /><path
         id="path23"
         style="fill:#ffffff;fill-opacity:1;stroke-width:0.2748"
         d="m 186.98124,217.64374 -0.001,5.1e-4 c -0.038,0.003 -0.10422,0.0268 -0.20826,0.0734 -0.0551,0.0247 -0.33283,0.13708 -0.61753,0.2496 -0.2847,0.11252 -0.58149,0.23342 -0.65939,0.26872 -0.0779,0.0353 -0.14968,0.0641 -0.15968,0.0641 -0.01,0 -0.0738,0.0245 -0.14211,0.0548 -0.0683,0.0302 -0.13922,0.0591 -0.15762,0.0641 -0.0183,0.005 -0.18375,0.0711 -0.36742,0.14676 -0.18368,0.0757 -0.41313,0.16837 -0.50953,0.20567 -0.10258,0.0396 -0.17518,0.0882 -0.17518,0.11731 0,0.0288 0.0163,0.0398 0.0388,0.0258 0.009,-0.006 0.0156,-0.008 0.0196,-0.008 h 5.2e-4 5.2e-4 v 5.1e-4 h 5.1e-4 5.2e-4 v 5.2e-4 h 5.2e-4 v 5.2e-4 h 5.1e-4 v 5.1e-4 5.2e-4 l 5.2e-4,5.2e-4 c 4e-5,0.001 -10e-6,0.001 0,0.002 0,0.003 -0.002,0.007 -0.005,0.0119 -0.0113,0.0182 0.18185,0.53557 0.42944,1.14929 0.24759,0.61373 0.53609,1.32875 0.64078,1.58905 0.0981,0.24404 0.19206,0.43902 0.21756,0.45372 l 5.2e-4,5.1e-4 c 5e-4,4e-5 10e-4,2e-5 0.002,0 h 5.1e-4 5.2e-4 5.2e-4 5.1e-4 c 0.005,-0.003 0.01,-0.005 0.0129,-0.005 h 5.2e-4 5.2e-4 5.1e-4 l 5.2e-4,5.2e-4 h 5.2e-4 v 5.2e-4 l 5.1e-4,5.1e-4 v 5.2e-4 h 5.2e-4 v 5.2e-4 5.1e-4 c 6e-5,0.001 6e-5,0.002 0,0.003 0,0.003 -0.002,0.008 -0.006,0.014 -0.01,0.0229 0.0377,0.18563 0.10749,0.36432 0.0709,0.18152 0.13814,0.35737 0.14934,0.39067 0.0112,0.0333 0.0345,0.0514 0.0517,0.0408 0.0172,-0.0106 0.0425,-0.002 0.0558,0.0196 0.005,0.009 0.008,0.0162 0.008,0.0202 v 5.2e-4 5.2e-4 l -5.2e-4,5.1e-4 v 5.2e-4 h -5.2e-4 v 5.2e-4 h -5.1e-4 v 5.2e-4 h -5.2e-4 -5.2e-4 c -0.004,0 -0.0102,-0.002 -0.0202,-0.008 -0.0228,-0.0141 -0.0393,-0.002 -0.0393,0.0279 0,0.0286 0.0188,0.0522 0.0413,0.0522 0.0226,0 0.41688,-0.15258 0.87643,-0.339 v 5.2e-4 c 0.45955,-0.18642 0.99009,-0.40151 1.17874,-0.47801 0.17685,-0.0717 0.31333,-0.14293 0.31833,-0.16433 v -5.1e-4 -5.2e-4 l -5.2e-4,-5.2e-4 v -5.1e-4 -5.2e-4 l -5.2e-4,-5.2e-4 c -0.004,-0.005 -0.006,-0.009 -0.007,-0.0109 v -5.2e-4 -5.1e-4 -5.2e-4 -5.2e-4 h 5.2e-4 l 5.2e-4,-5.1e-4 h 5.1e-4 5.2e-4 c 0.004,0 0.0102,0.002 0.0202,0.008 0.042,0.0241 0.52803,-0.15896 0.60203,-0.22686 0.0329,-0.0302 0.0216,-0.0901 -0.0537,-0.28629 -0.0524,-0.13645 -0.11641,-0.2613 -0.14211,-0.2775 -0.0317,-0.02 -0.3846,0.10621 -1.09864,0.39377 -0.57844,0.23295 -1.09268,0.44379 -1.14308,0.46819 -0.0874,0.0423 -0.0939,0.0396 -0.14005,-0.0615 -0.0654,-0.14342 -0.4535,-1.09997 -0.4625,-1.13947 v -5.2e-4 -5.1e-4 -5.2e-4 -5.2e-4 l 5.2e-4,-5.1e-4 5.1e-4,-5.2e-4 c 0.0161,-0.0243 0.22988,-0.12517 0.49248,-0.23203 0.27552,-0.11211 0.55935,-0.22966 0.63045,-0.26096 0.0711,-0.0313 0.13888,-0.0564 0.15038,-0.0563 0.0115,1.2e-4 0.14877,-0.0544 0.30489,-0.12092 0.15613,-0.0666 0.34071,-0.14452 0.41031,-0.17312 0.0917,-0.0376 0.12096,-0.0662 0.10646,-0.10438 -0.17917,-0.47245 -0.19517,-0.50286 -0.26407,-0.48886 -0.0586,0.0119 -1.10318,0.42566 -1.30483,0.51676 -0.1613,0.0729 -0.76246,0.30359 -0.76946,0.29559 -0.0124,-0.014 -0.19322,-0.44592 -0.33073,-0.78962 -0.124,-0.31009 -0.12572,-0.37199 -0.0103,-0.39119 0.0729,-0.0121 1.24211,-0.48936 1.28881,-0.52606 0.0245,-0.0193 0.0697,-0.0373 0.10026,-0.0403 0.11671,-0.0115 0.48724,-0.18219 0.48524,-0.22169 l -5.2e-4,-5.2e-4 v -5.2e-4 -5.1e-4 -5.2e-4 l -5.2e-4,-5.2e-4 c -0.004,-0.006 -0.005,-0.012 -0.006,-0.015 1e-5,-10e-4 -4e-5,-10e-4 0,-0.002 l 5.2e-4,-5.2e-4 v -5.2e-4 l 5.1e-4,-5.1e-4 h 5.2e-4 v -5.2e-4 h 5.2e-4 l 5.1e-4,-5.2e-4 5.2e-4,-5.1e-4 c 0.004,-2e-5 0.0113,0.003 0.0202,0.008 0.0538,0.0332 0.27234,-0.0505 0.27234,-0.10438 0,-0.0242 -0.0452,-0.14357 -0.10025,-0.2651 -0.0551,-0.12152 -0.10026,-0.24242 -0.10026,-0.26872 0,-0.023 -0.0128,-0.033 -0.0424,-0.031 z" /><path
         id="path22"
         style="fill:#ffffff;fill-opacity:1;stroke-width:0.2748"
         d="m 190.52056,215.61544 c -0.0897,0.009 -0.59237,0.30675 -0.59221,0.35656 0,0.0219 0.0323,0.0923 0.0718,0.15658 0.37046,0.60334 0.69608,1.1457 0.69608,1.1591 v -0.002 c 0.002,0.0114 0.0349,0.0648 0.0749,0.12092 0.0413,0.0579 0.10541,0.15986 0.14211,0.22686 0.16883,0.30779 0.63536,1.05645 0.65216,1.04645 h 5.1e-4 5.2e-4 5.2e-4 5.1e-4 5.2e-4 5.2e-4 5.1e-4 5.2e-4 l 5.2e-4,5.1e-4 c 2.7e-4,1.4e-4 7.6e-4,3.4e-4 0.001,5.2e-4 0.008,0.007 0.0163,0.034 0.0191,0.0693 0.007,0.0815 -0.0496,0.10789 -0.1111,0.0522 -0.0175,-0.0158 -0.50507,-0.2698 -1.08366,-0.56431 -0.57858,-0.2945 -1.19442,-0.60985 -1.36891,-0.70125 -0.17449,-0.0914 -0.45848,-0.23796 -0.63097,-0.32556 l -0.31367,-0.15916 -0.17622,0.0951 c -0.0879,0.0476 -0.15733,0.0958 -0.16433,0.11266 v 5.2e-4 5.1e-4 5.2e-4 5.2e-4 5.1e-4 5.2e-4 5.2e-4 l 5.2e-4,5.1e-4 5.1e-4,5.2e-4 c 0.001,0.002 0.002,0.004 0.002,0.006 -8e-5,0.001 -6.2e-4,0.003 -10e-4,0.004 -0.004,0.006 -0.0141,0.01 -0.0284,0.01 -0.0448,0 -0.3072,0.16036 -0.3235,0.19586 v 5.1e-4 5.2e-4 l -5.1e-4,5.2e-4 v 5.1e-4 5.2e-4 c 0,0.0176 1.52919,2.57526 2.05982,3.44527 0.13295,0.21797 0.25799,0.39776 0.28319,0.40876 h 5.1e-4 5.2e-4 l 5.2e-4,5.2e-4 c 0.0193,0 0.1609,-0.0773 0.31471,-0.17157 0.1538,-0.0943 0.27957,-0.17587 0.27957,-0.18087 0,-0.0159 -0.40693,-0.69614 -0.46923,-0.78444 -0.0329,-0.0467 -0.10823,-0.17476 -0.16743,-0.28423 -0.0592,-0.10947 -0.12569,-0.22158 -0.14779,-0.24908 -0.0222,-0.0276 -0.11878,-0.18505 -0.21498,-0.35036 -0.0962,-0.16531 -0.2183,-0.36844 -0.2713,-0.45114 -0.0531,-0.0827 -0.14115,-0.23281 -0.19585,-0.33383 -0.0547,-0.10103 -0.13035,-0.2286 -0.16795,-0.2837 -0.0875,-0.12829 -0.0862,-0.14449 0.0119,-0.13849 0.0333,0.001 0.0597,0.007 0.0667,0.0134 v 5.2e-4 l 5.2e-4,5.2e-4 v 5.1e-4 l 5.1e-4,5.2e-4 v 5.2e-4 l 5.2e-4,5.1e-4 v 5.2e-4 5.2e-4 l -5.2e-4,5.1e-4 v 5.2e-4 l -5.1e-4,5.2e-4 h -5.2e-4 v 5.1e-4 5.2e-4 l -5.2e-4,5.2e-4 5.2e-4,5.1e-4 c 4e-5,2.2e-4 4.6e-4,0.001 5.2e-4,0.002 v 5.2e-4 c 0.009,0.0147 0.0902,0.0636 0.1943,0.11627 0.11481,0.0582 0.4571,0.23402 0.76016,0.39068 0.79559,0.41121 0.89977,0.4632 0.91467,0.4532 v -5.2e-4 h 5.2e-4 l 5.2e-4,-5.1e-4 h 5.1e-4 c 0.01,-0.002 0.0419,0.0184 0.0739,0.0465 0.0341,0.03 0.12184,0.0841 0.19534,0.11989 0.0735,0.0358 0.38159,0.19346 0.68471,0.35037 l 0.55087,0.28525 0.21704,-0.1235 c 0.11934,-0.0679 0.2802,-0.16339 0.3576,-0.21239 l 0.14108,-0.0894 -0.16588,-0.26975 c -0.0911,-0.1485 -0.16588,-0.27921 -0.16588,-0.28991 v -5.2e-4 -5.1e-4 c -0.002,-0.0132 -0.0386,-0.0693 -0.0832,-0.12764 -0.0445,-0.0583 -0.0817,-0.11441 -0.0837,-0.12661 v -5.2e-4 c 0,-0.01 -0.12962,-0.23088 -0.28784,-0.49196 -0.15821,-0.26108 -0.31383,-0.52124 -0.34623,-0.57774 -0.0324,-0.0566 -0.12099,-0.20048 -0.19689,-0.31988 -0.0759,-0.11939 -0.14811,-0.23966 -0.16071,-0.26716 -0.0126,-0.0276 -0.1177,-0.20512 -0.23358,-0.39481 -0.11584,-0.18969 -0.21084,-0.34954 -0.21084,-0.35554 0,-0.0166 -0.36839,-0.59908 -0.39739,-0.62838 v -5.2e-4 h -5.2e-4 l -5.1e-4,-5.1e-4 -5.2e-4,-5.2e-4 h -5.2e-4 c -0.001,-3.7e-4 -0.003,-0.001 -0.005,-0.001 h -0.001 c -0.001,-1e-5 -0.003,-1.4e-4 -0.004,0 z" /><path
         id="path20"
         style="fill:#ffffff;fill-opacity:1;stroke-width:0.2748"
         d="m 193.52451,213.51841 c -0.47495,0.004 -0.88232,0.21287 -1.44332,0.73897 -0.1474,0.13823 -0.38786,0.36312 -0.53434,0.49919 -0.14648,0.13607 -0.35303,0.32892 -0.45888,0.42892 l -0.19224,0.1819 0.10542,0.12195 c 0.0579,0.067 0.2346,0.25746 0.39274,0.42323 0.29129,0.30537 0.90642,0.96246 1.32653,1.41697 0.12653,0.13689 0.43261,0.46499 0.68058,0.72967 0.24796,0.26468 0.47376,0.50976 0.50126,0.54416 0.0276,0.0344 0.0648,0.0623 0.0832,0.0625 0.0183,1.2e-4 0.12484,-0.0857 0.23668,-0.1912 0.11184,-0.10552 0.40479,-0.37967 0.65112,-0.60926 0.73432,-0.68442 0.91415,-0.88038 0.88315,-0.96118 -0.004,-0.0114 -0.005,-0.0208 -0.003,-0.0258 l 5.2e-4,-5.2e-4 c 6.2e-4,-8.7e-4 0.001,-0.002 0.002,-0.003 l 5.2e-4,-5.2e-4 5.1e-4,-5.2e-4 c 0.001,-2.6e-4 0.003,-4e-4 0.003,-5.1e-4 0.003,0 0.006,0.002 0.01,0.004 0.0571,0.0353 0.20868,-0.38239 0.24598,-0.67748 0.0319,-0.25312 0.0292,-0.32753 -0.0222,-0.54157 -0.07,-0.29153 -0.17887,-0.55847 -0.22117,-0.54777 l -5.2e-4,5.2e-4 h -5.2e-4 l -5.1e-4,5.2e-4 c -0.005,0.003 -0.009,0.004 -0.0124,0.003 h -5.2e-4 -5.2e-4 v -5.2e-4 h -5.2e-4 l -5.1e-4,-5.2e-4 -5.2e-4,-5.1e-4 c -0.003,-0.004 -0.002,-0.0144 0.003,-0.0289 0.043,-0.11206 -0.54678,-0.81371 -0.94,-1.11828 -0.15155,-0.11739 -0.56665,-0.33733 -0.67748,-0.35863 -0.0391,-0.007 -0.082,-0.0205 -0.0961,-0.0295 -0.0486,-0.03 -0.32554,-0.0619 -0.51883,-0.0599 z m -0.015,0.74 -5.1e-4,5.2e-4 c 0.1708,0 0.31442,0.0211 0.42064,0.0615 0.39096,0.14856 1.03461,0.76967 1.21647,1.17409 0.0372,0.0827 0.0814,0.17764 0.0982,0.21084 0.0167,0.0332 0.0393,0.15461 0.0501,0.27027 0.0348,0.37276 -0.12527,0.72431 -0.5116,1.12396 -0.0771,0.0798 -0.12947,0.1582 -0.12247,0.1788 l 5.1e-4,5.2e-4 v 5.2e-4 l 5.2e-4,5.1e-4 v 5.2e-4 c 0.004,0.004 0.007,0.008 0.008,0.0103 v 5.1e-4 5.2e-4 5.2e-4 h -5.2e-4 v 5.1e-4 h -5.1e-4 -5.2e-4 l -5.2e-4,5.2e-4 c -2e-4,0 -8e-4,2e-5 -0.001,0 -0.004,-6.6e-4 -0.0104,-0.004 -0.0191,-0.009 -0.0246,-0.0142 -0.12986,0.0625 -0.26717,0.19431 -0.21864,0.20981 -0.29224,0.2534 -0.31574,0.1881 -0.006,-0.0175 -0.18495,-0.21692 -0.39688,-0.44287 -0.21207,-0.22608 -0.4814,-0.51582 -0.59893,-0.6444 -0.11753,-0.12857 -0.24487,-0.26546 -0.28267,-0.30386 -0.0377,-0.0384 -0.22623,-0.24026 -0.41909,-0.44855 -0.19286,-0.20828 -0.37718,-0.40155 -0.40928,-0.42995 -0.0321,-0.0284 -0.0581,-0.0669 -0.0579,-0.0858 2.5e-4,-0.0342 0.53853,-0.54899 0.76533,-0.73174 0.0657,-0.0529 0.22387,-0.14687 0.35192,-0.20877 0.20308,-0.0983 0.26621,-0.11266 0.49247,-0.11266 z" /><path
         id="path19"
         style="fill:#ffffff;fill-opacity:1;stroke-width:0.2748"
         d="m 201.7824,208.74815 c -0.005,0.002 -0.0188,0.012 -0.0403,0.0289 -0.0301,0.0237 -0.0549,0.0486 -0.0579,0.0574 l -5.2e-4,5.2e-4 v 5.2e-4 5.1e-4 c 0,0.003 9.7e-4,0.007 0.002,0.009 l 5.2e-4,5.2e-4 5.1e-4,5.1e-4 5.2e-4,5.2e-4 5.2e-4,5.2e-4 5.1e-4,5.1e-4 5.2e-4,5.2e-4 h 5.2e-4 l 5.1e-4,5.2e-4 c 2.2e-4,4e-5 0.001,-2e-5 0.002,0 0.011,-6e-5 0.0341,-0.0202 0.0641,-0.0584 0.0182,-0.0232 0.0279,-0.0367 0.0289,-0.0408 v -5.2e-4 -5.2e-4 h -5.2e-4 -5.2e-4 v 0 h -5.1e-4 -5.2e-4 z" /><path
         id="path18"
         style="fill:#ffffff;fill-opacity:1;stroke-width:0.2748"
         d="m 201.7824,208.74815 h 5.2e-4 5.2e-4 5.1e-4 5.2e-4 5.2e-4 v 5.2e-4 5.2e-4 c -0.001,0.004 -0.0107,0.0176 -0.0289,0.0408 -0.03,0.0382 -0.0531,0.0583 -0.0641,0.0584 -0.001,-2e-5 -0.002,4e-5 -0.002,0 l -5.1e-4,-5.2e-4 h -5.2e-4 l -5.2e-4,-5.2e-4 -5.1e-4,-5.1e-4 -5.2e-4,-5.2e-4 -5.2e-4,-5.2e-4 -5.1e-4,-5.1e-4 -5.2e-4,-5.2e-4 c -0.001,-0.002 -0.002,-0.005 -0.002,-0.009 v -5.1e-4 -5.2e-4 l 5.2e-4,-5.2e-4 c 0.003,-0.009 0.0278,-0.0337 0.0579,-0.0574 0.0215,-0.0169 0.0353,-0.0269 0.0403,-0.0289 z" /><path
         id="path17"
         style="fill:#ffffff;fill-opacity:1;stroke-width:0.2748"
         d="m 197.0013,208.31821 c -10e-4,2e-4 -0.003,7.7e-4 -0.004,0.001 l -5.1e-4,5.2e-4 h -5.2e-4 -5.2e-4 v 5.1e-4 h -5.1e-4 c -0.0856,0.10276 -0.39636,0.58912 -0.39636,0.62012 0,0.0131 -0.003,0.0234 -0.006,0.0274 l -5.1e-4,5.2e-4 h -5.2e-4 -5.2e-4 l -5.1e-4,5.1e-4 h -5.2e-4 v 5.2e-4 h -5.2e-4 -5.1e-4 -5.2e-4 -5.2e-4 l -5.1e-4,5.2e-4 h -5.2e-4 l -5.2e-4,-5.2e-4 h -5.2e-4 -5.1e-4 -5.2e-4 v -5.2e-4 h -5.2e-4 -5.1e-4 -5.2e-4 l -5.2e-4,-5.1e-4 -5.1e-4,-5.2e-4 h -5.2e-4 l -5.2e-4,-5.2e-4 h -5.1e-4 c -0.0155,-0.0155 -0.22569,0.2808 -0.50798,0.71727 -0.0827,0.12781 -0.25907,0.39047 -0.39223,0.58343 -0.13318,0.19297 -0.24236,0.36607 -0.24236,0.38447 0,0.0184 -0.0114,0.0331 -0.0258,0.0331 h -5.1e-4 -5.2e-4 l -5.2e-4,5.2e-4 h -5.1e-4 c -0.0296,0.006 -0.14091,0.18176 -0.13591,0.21136 l 5.1e-4,5.1e-4 v 5.2e-4 l 5.2e-4,5.2e-4 v 5.1e-4 l 5.2e-4,5.2e-4 c 0.006,0.005 0.11688,0.079 0.24546,0.16433 0.12857,0.0853 0.2491,0.16785 0.2682,0.18345 0.0191,0.0156 0.34982,0.2391 0.73484,0.49661 0.38502,0.25751 0.94752,0.63567 1.25005,0.84026 0.30252,0.2046 0.5702,0.37207 0.5948,0.37207 0.0246,0 0.0356,0.0147 0.0243,0.0331 -0.0113,0.0183 0.001,0.0336 0.0269,0.0336 0.0258,0 0.0738,0.0299 0.10697,0.0667 0.0332,0.0368 0.0721,0.0672 0.0868,0.0672 h 5.2e-4 c 0.017,0.002 0.11293,0.0604 0.21549,0.13229 l 0.18965,0.13281 0.0899,-0.12454 c 0.0495,-0.0684 0.14778,-0.21089 0.21808,-0.31678 0.0659,-0.0993 0.11489,-0.18677 0.11472,-0.20257 v -5.2e-4 -5.1e-4 l -5.2e-4,-5.2e-4 c -0.007,-0.007 -0.34418,-0.23052 -0.74827,-0.49816 -0.40408,-0.26763 -0.77559,-0.52193 -0.82579,-0.56483 l -0.0915,-0.078 0.13953,-0.19947 c 0.0767,-0.10981 0.20428,-0.29712 0.28318,-0.41651 0.0789,-0.11939 0.15479,-0.23223 0.16899,-0.25063 0.0679,-0.0879 0.5426,-0.81216 0.5426,-0.82786 v -5.1e-4 -5.2e-4 -5.2e-4 -5.1e-4 l -5.2e-4,-5.2e-4 -5.2e-4,-5.2e-4 c -0.0268,-0.0388 -0.45682,-0.32194 -0.49092,-0.32194 -0.023,0 -0.32027,0.43152 -0.98392,1.42782 -0.0859,0.12901 -0.16619,0.23484 -0.18139,0.24184 l -5.1e-4,5.2e-4 c -0.0511,0 -0.9803,-0.64363 -0.9803,-0.67903 0,-0.0421 0.15756,-0.28363 0.84852,-1.30173 l 0.42633,-0.62838 -0.078,-0.0641 c -0.15664,-0.12896 -0.41801,-0.29177 -0.46922,-0.29507 z" /><path
         id="path15"
         style="fill:#ffffff;fill-opacity:1;stroke-width:0.2748"
         d="m 199.78614,205.029 c -0.21533,-0.003 -0.42667,0.0164 -0.58911,0.0589 -0.73102,0.19125 -1.27156,0.74493 -1.5012,1.53738 -0.29154,1.00604 0.21257,2.01862 1.26917,2.54971 0.6401,0.32168 1.23626,0.39792 1.84847,0.23668 0.32205,-0.0848 0.61138,-0.2489 0.85938,-0.48783 0.23325,-0.22471 0.3382,-0.37515 0.47852,-0.68523 0.27314,-0.60368 0.26888,-1.29113 -0.0108,-1.80919 -0.15963,-0.2956 -0.22533,-0.3883 -0.25993,-0.3669 -0.006,0.004 -0.012,0.006 -0.016,0.005 h -5.2e-4 c -8.6e-4,-2.4e-4 -0.002,-8.3e-4 -0.003,-0.001 l -5.2e-4,-5.1e-4 h -5.2e-4 l -5.1e-4,-5.2e-4 h -5.2e-4 l -5.2e-4,-5.2e-4 c -3.2e-4,-10e-4 -2.5e-4,-0.003 -5.1e-4,-0.003 -0.001,-0.003 -0.001,-0.007 5.1e-4,-0.0134 0.0118,-0.0425 -0.21296,-0.28195 -0.41392,-0.4408 -0.21906,-0.17316 -0.73076,-0.41861 -1.04697,-0.50281 -0.17746,-0.0473 -0.39599,-0.0729 -0.61133,-0.076 z m -0.17105,0.74104 c 0.82209,0.008 1.61751,0.45688 1.97198,1.11208 0.10917,0.20093 0.11517,0.22977 0.11317,0.52968 -0.001,0.25207 -0.0168,0.35061 -0.0749,0.47904 -0.0402,0.0889 -0.0633,0.17869 -0.0512,0.19999 0.004,0.008 0.008,0.0146 0.008,0.0186 3e-5,0.001 -1e-5,0.002 0,0.002 v 5.2e-4 l -5.2e-4,5.1e-4 v 5.2e-4 h -5.2e-4 v 5.2e-4 h -5.1e-4 -5.2e-4 -5.2e-4 -5.1e-4 l -5.2e-4,-5.2e-4 c -0.002,-0.001 -0.005,-0.003 -0.009,-0.006 l -5.2e-4,-5.2e-4 c -5e-4,-8e-5 -6.9e-4,1e-4 -10e-4,0 l -5.2e-4,-5.1e-4 h -5.2e-4 c -0.0183,-0.004 -0.0741,0.0534 -0.12815,0.13384 -0.30036,0.44629 -0.9372,0.61925 -1.62058,0.44028 -0.1357,-0.0355 -0.331,-0.10318 -0.43408,-0.15038 -0.10309,-0.0472 -0.19299,-0.0841 -0.19999,-0.0811 h -5.1e-4 c -3.5e-4,1.2e-4 -0.001,5e-4 -0.002,5.2e-4 h -5.2e-4 -5.2e-4 l -5.1e-4,-5.2e-4 c -0.008,-8e-4 -0.0205,-0.01 -0.0305,-0.0232 -0.0112,-0.0155 -0.081,-0.0685 -0.15452,-0.11731 -0.68079,-0.45248 -0.90481,-1.1478 -0.58497,-1.81384 0.23196,-0.48306 0.64135,-0.72947 1.20302,-0.72347 z" /><path
         id="path13"
         style="fill:#ffffff;fill-opacity:1;stroke-width:0.2748"
         d="m 200.55095,200.83132 c -0.13346,-0.002 -0.26493,0.0172 -0.38602,0.0594 -0.2185,0.0763 -0.53445,0.38922 -0.66301,0.65629 -0.0589,0.12243 -0.16897,0.51909 -0.29197,1.05214 -0.10856,0.47051 -0.235,1.00488 -0.2806,1.18804 -0.0656,0.26314 -0.0741,0.341 -0.0413,0.37 0.0228,0.0201 0.18414,0.0689 0.35863,0.10852 1.21724,0.27659 2.00027,0.45587 2.28772,0.52297 0.18368,0.0429 0.54434,0.12611 0.8015,0.18551 0.25714,0.0593 0.54278,0.12762 0.63458,0.15142 0.28977,0.075 0.30587,0.0661 0.36587,-0.19947 0.0949,-0.42009 0.0981,-0.4738 0.032,-0.4992 -0.0505,-0.0194 -0.84459,-0.20714 -1.21646,-0.28784 -0.39393,-0.0854 -0.48673,-0.10912 -0.50953,-0.13022 -0.0278,-0.0257 0.13666,-0.79076 0.26458,-1.23042 0.0857,-0.29448 0.20536,-0.46792 0.39171,-0.56792 0.13678,-0.0734 0.59187,-0.0734 0.90537,0 0.5106,0.11955 0.73511,0.10699 0.76481,-0.0424 0.006,-0.027 0.0182,-0.0716 0.0284,-0.0992 0.0217,-0.0583 0.1078,-0.46952 0.108,-0.51522 v -5.2e-4 -5.1e-4 l -5.2e-4,-5.2e-4 v -5.2e-4 l -5.1e-4,-5.1e-4 c -0.0158,-0.0162 -0.18938,-0.0311 -0.39946,-0.0351 -0.23098,-0.004 -0.50677,-0.0313 -0.65113,-0.0641 -0.3187,-0.0723 -0.64714,-0.0739 -0.81028,-0.004 -0.14888,0.0642 -0.33313,0.24611 -0.30283,0.29921 0.005,0.008 0.007,0.0151 0.007,0.0181 v 5.1e-4 h -5.2e-4 v 5.2e-4 l -5.2e-4,5.2e-4 h -5.1e-4 -5.2e-4 -5.2e-4 -5.1e-4 c -0.003,-10e-4 -0.006,-0.004 -0.0109,-0.008 -0.0158,-0.0143 -0.0467,0.008 -0.0687,0.0486 -0.0141,0.0265 -0.0248,0.0433 -0.0326,0.047 -2.6e-4,9e-5 -0.001,9.7e-4 -0.002,0.001 h -5.2e-4 -5.1e-4 -5.2e-4 l -5.2e-4,-5.2e-4 c -2.5e-4,-1e-4 -7.8e-4,1.4e-4 -10e-4,0 -0.001,-6.2e-4 -0.003,-0.002 -0.004,-0.003 -0.01,-0.009 -0.0191,-0.0412 -0.0362,-0.10284 -0.0202,-0.0727 -0.037,-0.14911 -0.0372,-0.17001 -1.1e-4,-0.0209 -0.0665,-0.12784 -0.14728,-0.23771 -0.23045,-0.31304 -0.65133,-0.50541 -1.05213,-0.51057 z m -0.008,0.79841 h 5.1e-4 c 0.25195,-0.009 0.54178,0.0896 0.67025,0.25166 0.1811,0.22844 0.19215,0.34003 0.0879,0.86351 -0.0502,0.25224 -0.11952,0.57513 -0.15452,0.71779 -0.035,0.14266 -0.0711,0.29305 -0.0811,0.33435 -0.0197,0.0841 -0.0538,0.087 -0.30024,0.0243 -0.0918,-0.0234 -0.38111,-0.0915 -0.64285,-0.15193 -0.35184,-0.0812 -0.47594,-0.12319 -0.47594,-0.16019 0,-0.0275 0.0226,-0.14133 0.0496,-0.2527 0.027,-0.11138 0.088,-0.38264 0.13642,-0.60306 0.15079,-0.68693 0.24459,-0.87749 0.47853,-0.97669 0.068,-0.0288 0.1477,-0.044 0.23151,-0.047 z" /><path
         id="path12"
         style="fill:#ffffff;fill-opacity:1;stroke-width:0.2748"
         d="m 201.19949,196.97626 -0.18448,0.0114 c -0.55295,0.0356 -0.98444,0.41402 -1.20768,1.05885 -0.091,0.26295 -0.10345,0.34434 -0.10645,0.68265 -0.002,0.28138 0.0133,0.43739 0.0574,0.58291 0.10303,0.33963 0.33915,0.75292 0.42995,0.75292 0.004,0 0.008,-0.002 0.0103,-0.004 0.006,-0.006 0.005,-0.0194 -0.004,-0.0346 -0.005,-0.009 -0.008,-0.0156 -0.008,-0.0196 v -5.2e-4 l 5.1e-4,-5.1e-4 v -5.2e-4 l 5.2e-4,-5.2e-4 v -5.2e-4 h 5.2e-4 v -5.1e-4 h 5.1e-4 5.2e-4 5.2e-4 c 0.004,-2.1e-4 0.0102,0.002 0.0181,0.007 0.0207,0.0126 0.0307,0.0412 0.0217,0.0636 -0.0164,0.0428 3.8e-4,0.0548 0.27026,0.19069 0.14377,0.0725 0.20992,0.0837 0.49972,0.0837 0.29758,0 0.35196,-0.01 0.50074,-0.0889 0.34663,-0.18461 0.51795,-0.45187 0.73484,-1.1467 0.32877,-1.0533 0.37919,-1.16811 0.57051,-1.29811 0.15265,-0.1037 0.42998,-0.11544 0.60461,-0.0258 0.2939,0.1507 0.40931,0.38711 0.41031,0.84181 6.2e-4,0.35551 -0.0553,0.59708 -0.19327,0.83251 -0.0484,0.0826 -0.0835,0.16557 -0.0775,0.18397 0.002,0.005 0.002,0.0104 0.002,0.0134 l -5.1e-4,5.2e-4 c -1.1e-4,3.5e-4 4e-5,0.001 0,0.002 l -5.2e-4,5.2e-4 v 5.1e-4 h -5.2e-4 l -5.1e-4,5.2e-4 h -5.2e-4 -5.2e-4 v 5.2e-4 h -5.1e-4 -5.2e-4 -5.2e-4 -5.1e-4 l -5.2e-4,-5.2e-4 h -5.2e-4 c -0.002,-0.001 -0.006,-0.004 -0.0103,-0.008 l -5.2e-4,-5.1e-4 c -2.2e-4,-1.9e-4 -7.9e-4,-3.5e-4 -0.001,-5.2e-4 -0.0162,-0.01 -0.069,0.0101 -0.12041,0.047 -0.11345,0.0808 -0.3631,0.16175 -0.49764,0.16175 -0.0511,0 -0.10111,0.0133 -0.11111,0.0295 -0.01,0.0162 -0.0264,0.18891 -0.0367,0.38395 l -0.0191,0.3545 h 0.16175 c 0.0888,0 0.25123,-0.0229 0.3607,-0.0512 0.25818,-0.067 0.52083,-0.22584 0.6997,-0.42374 0.16501,-0.18261 0.29522,-0.41374 0.26252,-0.46664 -0.005,-0.008 -0.007,-0.0136 -0.007,-0.0176 l 5.2e-4,-5.2e-4 v -5.1e-4 -5.2e-4 -5.2e-4 h 5.2e-4 v -5.1e-4 h 5.1e-4 v -5.2e-4 h 5.2e-4 5.2e-4 l 5.1e-4,-5.2e-4 c 10e-4,-9e-5 0.002,-3e-5 0.003,0 0.003,0.001 0.007,0.003 0.0124,0.006 0.0694,0.0428 0.18668,-0.47519 0.20308,-0.89658 0.0132,-0.33934 0.004,-0.44505 -0.0579,-0.6842 -0.0403,-0.15561 -0.11348,-0.3581 -0.16278,-0.4501 -0.1246,-0.23279 -0.37228,-0.47203 -0.59893,-0.57826 -0.16978,-0.0796 -0.2318,-0.0899 -0.54261,-0.0899 -0.33605,0 -0.35926,0.005 -0.56172,0.11421 -0.1162,0.063 -0.26416,0.17583 -0.32866,0.25063 -0.1095,0.12687 -0.27252,0.41079 -0.26252,0.44958 1e-4,2.8e-4 4e-4,0.001 5.2e-4,0.002 v 5.2e-4 h 5.2e-4 v 5.2e-4 h 5.1e-4 v 5.1e-4 h 5.2e-4 5.2e-4 v 5.2e-4 c 4.2e-4,-2e-5 0.002,0 0.002,0 8.5e-4,1.1e-4 0.003,4.1e-4 0.003,5.2e-4 h 5.2e-4 l 5.2e-4,5.1e-4 5.1e-4,5.2e-4 h 5.2e-4 v 5.2e-4 h 5.2e-4 v 5.1e-4 l 5.1e-4,5.2e-4 v 5.2e-4 c 0.001,0.007 -0.005,0.0221 -0.0176,0.0382 -0.026,0.0328 -0.21533,0.58064 -0.25683,0.74311 -0.005,0.0183 -0.0177,0.0556 -0.0289,0.0832 -0.0112,0.0276 -0.0533,0.15565 -0.093,0.28423 -0.0398,0.12857 -0.11138,0.2977 -0.15968,0.3762 -0.23236,0.37782 -0.75849,0.35723 -0.96532,-0.0377 -0.0809,-0.15467 -0.0898,-0.20664 -0.0899,-0.52245 -1e-4,-0.28641 0.0127,-0.37881 0.0703,-0.50436 0.1322,-0.28787 0.28268,-0.409 0.59635,-0.4806 l 0.16691,-0.0382 0.0186,-0.23151 c 0.0101,-0.12726 0.0181,-0.29919 0.0171,-0.38189 z" /><path
         id="path11"
         style="fill:#ffffff;fill-opacity:1;stroke-width:0.2748"
         d="m 202.34464,192.32693 c -0.0358,7e-4 -0.0612,0.005 -0.0682,0.0114 l -5.2e-4,5.2e-4 -5.1e-4,5.2e-4 c -0.0225,0.039 0.0558,0.66106 0.0879,0.70176 0.0146,0.0146 0.13732,0.0441 0.27233,0.0651 0.30908,0.0481 0.57717,0.16945 0.73794,0.33435 0.0665,0.0682 0.13482,0.12063 0.154,0.11937 l 5.1e-4,-5.1e-4 c 0.005,-0.002 0.01,-0.001 0.0129,0 l 5.2e-4,5.1e-4 h 5.2e-4 5.1e-4 l 5.2e-4,5.2e-4 5.2e-4,5.2e-4 5.1e-4,5.1e-4 c 8e-5,5e-4 4.2e-4,0.001 5.2e-4,0.002 v 5.2e-4 c 2e-5,2.5e-4 -5e-5,8.2e-4 0,0.001 l 5.2e-4,5.2e-4 v 5.2e-4 c 6e-5,2.5e-4 -4e-5,7.7e-4 0,0.001 2.3e-4,0.004 -0.002,0.009 -0.005,0.0155 -0.0105,0.0169 0.003,0.0735 0.0305,0.12558 0.0793,0.15279 0.12542,0.43863 0.11162,0.6935 -0.0319,0.58974 -0.44042,1.02112 -1.17977,1.2454 -0.15705,0.0476 -0.31209,0.0607 -0.71779,0.0605 -0.56803,-3.7e-4 -0.72514,-0.0382 -1.03921,-0.24908 -0.0767,-0.0514 -0.15365,-0.0855 -0.17415,-0.0775 -2.7e-4,1.5e-4 -7.7e-4,3.5e-4 -10e-4,5.2e-4 -0.004,0.003 -0.008,0.005 -0.0114,0.005 -0.001,8e-5 -0.003,3e-5 -0.003,0 h -5.1e-4 -5.2e-4 l -5.2e-4,-5.2e-4 h -5.1e-4 v -5.1e-4 l -5.2e-4,-5.2e-4 v -5.2e-4 -5.1e-4 -5.2e-4 l -5.2e-4,-5.2e-4 v -5.2e-4 c 0,-0.003 0.002,-0.008 0.006,-0.0155 0.0115,-0.0185 -0.0149,-0.0671 -0.0584,-0.108 -0.10506,-0.0987 -0.2452,-0.41736 -0.2899,-0.65888 -0.0624,-0.33707 0.0237,-0.7224 0.21187,-0.94723 0.0721,-0.0862 0.33769,-0.28412 0.43925,-0.32762 0.0935,-0.04 0.0961,-0.0467 0.0739,-0.21549 -0.0126,-0.0957 -0.0321,-0.26077 -0.0429,-0.36691 -0.0106,-0.10447 -0.0316,-0.19789 -0.046,-0.20929 l -5.2e-4,-5.1e-4 c -0.0185,-0.007 -0.10891,0.0167 -0.20361,0.0537 -1.00002,0.39033 -1.38207,1.65747 -0.8356,2.77037 0.16327,0.33251 0.52794,0.70224 0.86764,0.87954 0.13376,0.0698 0.27735,0.13087 0.31885,0.13487 0.0415,0.004 0.0938,0.0197 0.11627,0.0336 0.0531,0.0328 0.4898,0.11231 0.64182,0.11731 0.0648,0.002 0.24442,-0.0127 0.39894,-0.032 0.76623,-0.0961 1.31267,-0.37599 1.73116,-0.88677 0.0745,-0.091 0.13605,-0.1768 0.14005,-0.1943 v -5.2e-4 -5.2e-4 c 0,-0.0135 0.0275,-0.0645 0.061,-0.11317 0.0335,-0.0488 0.0969,-0.18602 0.14108,-0.30541 0.0706,-0.19022 0.0804,-0.27312 0.0796,-0.66817 -10e-4,-0.4546 -0.0238,-0.57294 -0.18707,-0.95705 -0.0647,-0.1523 -0.29944,-0.44673 -0.33744,-0.42323 -0.007,0.004 -0.0125,0.006 -0.0155,0.006 h -5.1e-4 -5.2e-4 l -5.2e-4,-5.2e-4 h -5.1e-4 l -5.2e-4,-5.1e-4 v -5.2e-4 h -5.2e-4 v -5.2e-4 c -2e-5,-2.5e-4 5e-5,-8.2e-4 0,-0.001 v -5.2e-4 l -5.1e-4,-5.1e-4 c 0,-0.003 0.002,-0.01 0.007,-0.0165 0.0596,-0.0964 -0.54565,-0.46532 -0.88056,-0.53692 -0.1773,-0.0379 -0.42202,-0.0635 -0.54054,-0.0615 z" /><path
         id="path10"
         style="fill:#ffffff;fill-opacity:1;stroke-width:0.2748"
         d="m 202.74307,187.55462 c -0.008,-0.008 -0.2766,0.0594 -0.59583,0.15037 -0.31922,0.091 -0.63282,0.18022 -0.69712,0.19792 -0.0643,0.0177 -0.41025,0.11756 -0.76842,0.22221 -0.35818,0.10465 -0.77871,0.22604 -0.93483,0.26924 -1.23535,0.34216 -1.33584,0.3765 -1.33584,0.4563 0,0.0655 0.15889,0.63121 0.18449,0.65681 0.009,0.009 0.26013,-0.055 0.55862,-0.1416 0.29849,-0.0866 0.56783,-0.16301 0.59893,-0.17001 0.0311,-0.007 0.17165,-0.0454 0.31213,-0.0848 0.13396,-0.0375 0.2513,-0.0618 0.26923,-0.0568 h 5.2e-4 l 5.1e-4,5.1e-4 h 5.2e-4 c 0.008,0.008 0.12668,0.4006 0.26252,0.87127 0.13584,0.47067 0.25543,0.86998 0.26613,0.88728 0.0107,0.0173 0.0256,0.0895 0.0326,0.1602 0.0114,0.11536 0.005,0.12816 -0.0636,0.12816 -0.0421,0 -0.13508,0.0173 -0.20618,0.0382 -0.44914,0.13244 -0.63648,0.18675 -0.96377,0.27905 -0.50833,0.14338 -0.49063,0.12993 -0.43563,0.32246 0.0249,0.0872 0.0699,0.24505 0.0997,0.35088 0.0607,0.21603 0.0235,0.20709 0.4191,0.10336 0.36312,-0.0952 0.5582,-0.14994 1.002,-0.28009 0.70562,-0.20695 1.01252,-0.29518 1.56942,-0.45114 0.28469,-0.0797 0.69788,-0.19975 0.91829,-0.26665 0.22041,-0.0669 0.42839,-0.12984 0.46199,-0.14004 0.0374,-0.0114 0.0545,-0.0395 0.0444,-0.0724 -0.009,-0.0296 -0.0568,-0.18919 -0.10594,-0.3545 -0.0492,-0.16531 -0.0942,-0.30557 -0.0992,-0.31057 -0.006,-0.006 -0.24802,0.0595 -0.5395,0.14418 -0.29146,0.0847 -0.56006,0.15943 -0.59686,0.16743 -0.0368,0.008 -0.21689,0.0593 -0.4005,0.11472 -0.43025,0.12969 -0.44085,0.12923 -0.48265,-0.0238 -0.0188,-0.0689 -0.0726,-0.26051 -0.11989,-0.42582 -0.0472,-0.16531 -0.12198,-0.43018 -0.16588,-0.58859 -0.0439,-0.15842 -0.10943,-0.3763 -0.14573,-0.48421 -0.0363,-0.10792 -0.071,-0.23959 -0.077,-0.29249 -0.0106,-0.094 -0.004,-0.0975 0.27337,-0.17621 0.15613,-0.0443 0.31367,-0.0876 0.35037,-0.0956 0.0367,-0.008 0.22468,-0.0618 0.41754,-0.11885 0.19286,-0.057 0.47479,-0.1402 0.62632,-0.185 0.14206,-0.042 0.25998,-0.0872 0.27388,-0.10336 l 5.2e-4,-5.1e-4 v -5.2e-4 l 5.2e-4,-5.2e-4 v -5.1e-4 c -10e-4,-0.0408 -0.19319,-0.67998 -0.20929,-0.69608 z" /><path
         id="path9"
         style="fill:#ffffff;fill-opacity:1;stroke-width:0.2748"
         d="m 201.64701,184.7243 c -0.001,3e-5 -0.003,3.9e-4 -0.005,5.1e-4 l 5.2e-4,5.2e-4 c -0.0527,0.003 -0.29048,0.0858 -0.56328,0.19689 -0.30102,0.12253 -1.00558,0.40758 -1.56579,0.63355 -0.56021,0.22598 -1.11508,0.45103 -1.23352,0.50023 -0.20419,0.0847 -0.2177,0.0868 -0.2589,0.0305 -0.0239,-0.0326 -0.0439,-0.0732 -0.0439,-0.0904 0,-0.0307 -0.3269,-0.86935 -0.4222,-1.08313 -0.0548,-0.123 -0.0621,-0.12522 -0.18345,-0.062 -0.0484,0.0253 -0.16468,0.0712 -0.25838,0.10232 -0.0937,0.0312 -0.17874,0.0705 -0.18914,0.0873 -0.0151,0.0244 0.46166,1.27959 0.5886,1.54977 0.0172,0.0368 0.17166,0.41652 0.34313,0.84336 0.17148,0.42683 0.31804,0.76975 0.32504,0.76275 h 5.2e-4 l 5.2e-4,-0.001 h 5.1e-4 5.2e-4 5.2e-4 5.1e-4 5.2e-4 5.2e-4 v 0.001 c 0.006,0.006 0.0125,0.0324 0.0145,0.0677 0.01,0.1658 0.0598,0.181 0.30385,0.0925 0.1224,-0.0444 0.25541,-0.10259 0.29611,-0.12919 l 0.0739,-0.0486 -0.262,-0.64389 c -0.14393,-0.35417 -0.24963,-0.65628 -0.23513,-0.67128 0.0273,-0.0284 0.42623,-0.19528 1.04541,-0.4377 0.1822,-0.0713 0.3253,-0.14094 0.3359,-0.16174 v -5.2e-4 -5.2e-4 -5.2e-4 -5.1e-4 -5.2e-4 l -5.2e-4,-5.2e-4 v -5.1e-4 c -0.001,-7.5e-4 -0.002,-0.001 -0.003,-0.002 -2.1e-4,-2.5e-4 -10e-4,-10e-4 -0.002,-0.002 -1.3e-4,-2.5e-4 -4.3e-4,-0.001 -5.2e-4,-0.002 v -5.2e-4 -5.1e-4 -5.2e-4 -5.2e-4 -5.1e-4 h 5.2e-4 v -5.2e-4 h 5.2e-4 l 5.1e-4,-5.2e-4 c 0.005,-0.002 0.0199,0.001 0.0408,0.009 0.0221,0.008 0.0369,0.0113 0.0429,0.009 l 5.2e-4,-5.2e-4 h 5.1e-4 l 5.2e-4,-5.1e-4 v -5.2e-4 h 5.2e-4 l 5.1e-4,-5.2e-4 v -5.1e-4 l 5.2e-4,-5.2e-4 v -5.2e-4 c 4e-5,-0.001 -3e-5,-0.002 0,-0.002 3e-4,-0.005 -0.003,-0.0129 -0.01,-0.0243 -0.007,-0.0125 -0.0116,-0.022 -0.0114,-0.0264 v -5.1e-4 -5.2e-4 h 5.2e-4 v -5.2e-4 h 5.2e-4 v -5.1e-4 h 5.1e-4 v -5.2e-4 h 5.2e-4 5.2e-4 5.1e-4 c 0.003,0 0.01,0.002 0.0176,0.007 0.0198,0.0122 0.42376,-0.13479 0.89814,-0.3266 1.16772,-0.47209 1.17602,-0.47569 1.16272,-0.54519 -0.006,-0.032 -0.0124,-0.0783 -0.0134,-0.10231 -0.001,-0.0246 -0.0199,-0.0328 -0.0413,-0.0196 -0.008,0.005 -0.0151,0.008 -0.0191,0.008 -0.001,-2e-5 -0.002,5e-5 -0.002,0 v -5.2e-4 h -5.1e-4 -5.2e-4 v -5.2e-4 h -5.2e-4 l -5.1e-4,-5.1e-4 v -5.2e-4 -5.2e-4 h -5.2e-4 c -1.1e-4,-0.001 -3e-5,-0.002 0,-0.003 v -5.1e-4 c 6.2e-4,-0.003 0.003,-0.008 0.006,-0.0124 1.6e-4,-2.6e-4 3.7e-4,-7.3e-4 5.1e-4,-0.001 0.0153,-0.0438 -0.12515,-0.43213 -0.17673,-0.48628 l -5.2e-4,-5.1e-4 -5.1e-4,-5.2e-4 h -5.2e-4 l -5.2e-4,-5.2e-4 h -5.1e-4 c -5.4e-4,-4e-5 -0.002,-5.3e-4 -0.003,-5.1e-4 z" /><path
         id="path8"
         style="fill:#ffffff;fill-opacity:1;stroke-width:0.2748"
         d="m 187.13989,179.23729 c -0.0259,3e-5 -0.039,0.0126 -0.03,0.0279 0.009,0.0143 0.0217,0.0265 0.0289,0.0279 h 5.2e-4 5.2e-4 c 2.2e-4,0 8.3e-4,2e-5 0.001,0 0.007,-0.001 0.0205,-0.0136 0.0289,-0.0279 0.009,-0.0152 -0.004,-0.0279 -0.03,-0.0279 z" /><path
         id="path7"
         style="fill:#ffffff;fill-opacity:1;stroke-width:0.2748"
         d="m 153.70213,178.9014 c 0.0227,0.004 0.0375,-0.0121 0.0326,-0.0362 -6.7e-4,-0.003 -8.8e-4,-0.006 -0.001,-0.009 a 29.275513,29.275513 0 0 0 -0.0315,0.045 z" /><path
         id="path6"
         style="fill:#ffffff;fill-opacity:1;stroke-width:0.2748"
         d="m 152.94921,179.98454 c 0.10169,-0.14587 0.15365,-0.23164 0.44235,-0.62891 0.19768,-0.27197 0.25954,-0.36007 0.2744,-0.40152 a 29.275513,29.275513 0 0 0 -0.71675,1.03043 z" /><path
         id="path5"
         style="fill:#ffffff;fill-opacity:1;stroke-width:0.2748"
         d="m 160.60611,219.65136 c 0.40817,-0.35833 0.71667,-0.65921 0.7121,-0.69556 v -5.2e-4 -5.1e-4 h -5.2e-4 c -0.005,-0.008 -0.007,-0.0156 -0.008,-0.0186 v -5.1e-4 -5.2e-4 -5.2e-4 h 5.2e-4 v -5.1e-4 h 5.1e-4 v -5.2e-4 h 5.2e-4 5.2e-4 5.1e-4 l 5.2e-4,5.2e-4 c 0.002,0.001 0.006,0.003 0.01,0.007 0.0289,0.0262 0.11229,-0.0341 0.36793,-0.26355 0.0918,-0.0824 0.24986,-0.22217 0.35089,-0.31057 0.1756,-0.15366 0.87866,-0.78135 0.95446,-0.85215 0.0199,-0.0187 0.14652,-0.13175 0.28112,-0.25115 0.13461,-0.11939 0.26122,-0.23213 0.28112,-0.25063 0.0923,-0.0855 0.69347,-0.61943 0.87902,-0.78083 0.11215,-0.0976 0.19455,-0.19282 0.18655,-0.21342 l -5.2e-4,-5.2e-4 c -0.004,-0.007 -0.005,-0.012 -0.005,-0.015 v -5.2e-4 l 5.2e-4,-5.2e-4 v -5.2e-4 h 5.1e-4 v -5.1e-4 h 5.2e-4 l 5.2e-4,-5.2e-4 h 5.1e-4 l 5.2e-4,-5.2e-4 h 5.2e-4 c 2.4e-4,0 7.7e-4,-2e-5 0.001,0 0.004,6.5e-4 0.0102,0.003 0.0181,0.008 0.0221,0.0137 0.13286,-0.0645 0.26406,-0.18656 0.12436,-0.11572 0.35724,-0.32938 0.51729,-0.47439 0.15504,-0.14048 0.27326,-0.27078 0.27026,-0.29558 v -5.2e-4 -5.2e-4 l -5.1e-4,-5.1e-4 c -0.004,-0.006 -0.005,-0.0115 -0.005,-0.0145 v -5.2e-4 -5.2e-4 -5.1e-4 l 5.1e-4,-5.2e-4 5.2e-4,-5.2e-4 h 5.2e-4 v -5.1e-4 h 5.1e-4 5.2e-4 5.2e-4 c 0.004,-4.8e-4 0.012,0.003 0.0217,0.008 0.0248,0.0153 0.10793,-0.037 0.21497,-0.13642 0.2306,-0.21407 0.68806,-0.62001 0.75086,-0.66611 0.0273,-0.0202 0.0393,-0.0539 0.0264,-0.0749 -0.005,-0.009 -0.007,-0.0165 -0.006,-0.0207 v -5.2e-4 c 7e-5,-5e-4 -9e-5,-0.001 0,-0.002 l 5.1e-4,-5.2e-4 5.2e-4,-5.1e-4 5.2e-4,-5.2e-4 c 2.4e-4,-1.9e-4 7.5e-4,-3.6e-4 0.001,-5.2e-4 0.004,-0.002 0.013,-7.5e-4 0.0238,0.004 0.0241,0.009 0.0898,-0.0247 0.14573,-0.0755 0.0559,-0.0508 0.1807,-0.16341 0.2775,-0.25011 0.0938,-0.084 0.16261,-0.16677 0.15761,-0.18707 -1.2e-4,-2.6e-4 -3.4e-4,-7.6e-4 -5.1e-4,-0.001 -0.0104,-0.0168 0.002,-0.0278 0.0264,-0.0258 0.0334,0.003 0.74014,-0.59043 0.88884,-0.74673 0.009,-0.01 0.21235,-0.18861 0.45113,-0.39739 0.23877,-0.20878 0.46405,-0.41152 0.50075,-0.45062 0.0367,-0.039 0.1874,-0.17487 0.33434,-0.30179 0.14694,-0.12692 0.39474,-0.34579 0.55087,-0.48679 0.15612,-0.14099 0.37401,-0.3366 0.48421,-0.4346 0.11021,-0.098 0.20804,-0.1868 0.21704,-0.1974 0.009,-0.0106 0.0769,-0.0701 0.15038,-0.13229 0.0735,-0.0622 0.26877,-0.23683 0.43408,-0.38809 0.16531,-0.15126 0.35325,-0.31802 0.41755,-0.37052 0.0643,-0.0525 0.13932,-0.11965 0.16692,-0.14935 0.0276,-0.0297 0.14417,-0.13271 0.25941,-0.22841 0.11987,-0.0995 0.20007,-0.18932 0.18707,-0.21032 -0.004,-0.007 -0.007,-0.014 -0.007,-0.0176 v -5.2e-4 l 5.2e-4,-5.1e-4 v -5.2e-4 h 5.2e-4 v -5.2e-4 l 5.1e-4,-5.1e-4 5.2e-4,-5.2e-4 h 5.2e-4 l 5.2e-4,-5.2e-4 h 5.1e-4 c 0.001,-5e-5 0.001,1e-5 0.002,0 0.003,0.001 0.007,0.002 0.0134,0.006 0.0189,0.0117 0.0779,-0.0175 0.13074,-0.0656 0.27881,-0.2542 0.4225,-0.38386 0.66456,-0.59997 0.34714,-0.30992 0.87369,-0.77511 1.18649,-1.04799 0.13685,-0.11939 0.33887,-0.30089 0.44907,-0.4036 0.11021,-0.10272 0.56118,-0.50608 1.002,-0.89607 0.44083,-0.38999 0.91387,-0.81095 1.05162,-0.93586 0.13776,-0.1249 0.36673,-0.32883 0.5085,-0.4532 0.1381,-0.12111 0.24119,-0.23598 0.23719,-0.26148 v -5.2e-4 l -5.2e-4,-5.2e-4 v -5.1e-4 c -0.004,-0.008 -0.006,-0.0151 -0.007,-0.0181 v -5.2e-4 -5.1e-4 l 5.1e-4,-5.2e-4 5.2e-4,-5.2e-4 h 5.2e-4 5.1e-4 5.2e-4 l 5.2e-4,5.2e-4 c 0.002,10e-4 0.005,0.003 0.009,0.007 0.0294,0.0265 0.10547,-0.0331 0.49713,-0.38757 0.14456,-0.13082 0.27404,-0.24253 0.28784,-0.24753 0.0139,-0.006 0.24002,0.21582 0.50229,0.49144 0.24998,0.2627 0.47095,0.47211 0.50695,0.48111 0.001,4e-5 0.002,-3e-5 0.002,0 h 5.2e-4 5.2e-4 v -5.2e-4 h 5.1e-4 c 0.007,-0.005 0.013,-0.007 0.016,-0.006 l 5.2e-4,5.1e-4 h 5.2e-4 l 5.1e-4,0.001 h 5.2e-4 v 5.1e-4 h 5.2e-4 v 0.001 5.2e-4 l 5.1e-4,5.1e-4 v 5.2e-4 c 0,0.003 -0.002,0.008 -0.006,0.0139 v 5.2e-4 5.1e-4 l -5.1e-4,5.2e-4 v 5.2e-4 c -0.005,0.0237 0.0847,0.14027 0.20412,0.26458 0.22166,0.2308 1.06621,1.11916 1.34772,1.418 0.54283,0.57624 1.16112,1.22598 1.43144,1.50379 0.30579,0.31425 0.85659,0.89359 1.31258,1.38027 0.1128,0.12035 0.21296,0.21386 0.23151,0.21756 h 5.2e-4 5.1e-4 5.2e-4 l 5.2e-4,-5.1e-4 c 0.008,-0.009 0.0323,-2.06747 0.0537,-4.5744 0.0214,-2.50692 0.0494,-4.56755 0.0625,-4.57905 0.0131,-0.0116 0.68527,-0.068 1.49345,-0.12557 1.81369,-0.12935 4.94193,-0.35658 5.59345,-0.40618 0.26633,-0.0203 0.76695,-0.0566 1.11208,-0.0806 0.34513,-0.024 0.63541,-0.0515 0.64441,-0.0605 v -5.1e-4 h 5.1e-4 v -5.2e-4 -5.2e-4 c 2e-5,-10e-4 1e-5,-0.002 0,-0.002 -0.008,-0.0556 -0.73861,-0.66865 -0.79581,-0.66765 -0.001,3e-5 -0.002,-4e-5 -0.002,0 l -5.2e-4,5.1e-4 c -0.007,0.005 -0.013,0.006 -0.016,0.006 l -5.2e-4,-5.1e-4 h -5.1e-4 l -5.2e-4,-5.2e-4 h -5.2e-4 v -5.2e-4 l -5.1e-4,-5.1e-4 v -5.2e-4 -5.2e-4 c -4e-5,-0.001 0,-0.002 0,-0.002 10e-4,-0.003 0.002,-0.007 0.006,-0.0134 l 5.2e-4,-5.2e-4 c 0.0176,-0.0345 -0.13539,-0.17682 -0.52607,-0.48989 -0.24404,-0.19556 -0.58732,-0.49115 -0.77049,-0.66301 -0.0723,-0.0679 -0.14422,-0.12357 -0.16072,-0.12557 -0.0151,-2.6e-4 -0.0657,-0.0459 -0.11265,-0.1018 -0.0427,-0.0507 -0.0857,-0.0866 -0.10025,-0.0858 h -5.2e-4 -5.2e-4 l -5.1e-4,5.2e-4 -5.2e-4,5.2e-4 h -5.2e-4 l -5.1e-4,5.1e-4 -5.2e-4,5.2e-4 -5.2e-4,5.2e-4 h -5.1e-4 -5.2e-4 c -3.5e-4,1.1e-4 -0.001,4.9e-4 -0.002,5.1e-4 -0.0144,0.001 -0.0573,-0.032 -0.10077,-0.0791 -0.048,-0.0521 -0.23749,-0.21994 -0.42116,-0.37311 -0.18368,-0.15317 -0.43148,-0.36286 -0.55087,-0.4656 -0.35582,-0.30621 -0.71057,-0.6085 -0.90176,-0.76843 -0.0988,-0.0827 -0.301,-0.2532 -0.44907,-0.3793 -0.14807,-0.1261 -0.3509,-0.29886 -0.45113,-0.38396 -0.10023,-0.0851 -0.31811,-0.27218 -0.48421,-0.41548 -0.1661,-0.14331 -0.33314,-0.28609 -0.37104,-0.31729 -0.10506,-0.0864 -0.49683,-0.4211 -0.51573,-0.4408 -0.009,-0.01 -0.0995,-0.085 -0.2005,-0.16743 -0.10102,-0.0824 -0.20856,-0.17249 -0.23926,-0.19999 -0.0307,-0.0276 -0.20629,-0.1777 -0.39016,-0.33383 -0.18387,-0.15612 -0.33541,-0.3099 -0.33641,-0.3421 -10e-4,-0.0321 0.11197,-0.31777 0.25166,-0.63459 0.13969,-0.31683 0.25645,-0.59138 0.26045,-0.60978 0.004,-0.0183 0.0231,-0.0629 0.0434,-0.0997 0.0203,-0.0368 0.24987,-0.55544 0.51056,-1.15239 0.26068,-0.59695 0.50082,-1.14554 0.53382,-1.21904 0.0331,-0.0735 0.2107,-0.4793 0.39429,-0.90176 0.18359,-0.42246 0.39365,-0.90336 0.46715,-1.06867 0.14535,-0.32702 0.35868,-0.81465 1.0542,-2.40915 0.2495,-0.572 0.49025,-1.12065 0.53485,-1.21905 0.0446,-0.0984 0.12651,-0.28381 0.18191,-0.41238 0.0554,-0.12858 0.16339,-0.37688 0.24029,-0.55138 0.0769,-0.17449 0.18208,-0.41495 0.23358,-0.53434 0.1855,-0.43024 0.56002,-1.28845 0.62632,-1.43557 0.0372,-0.0827 0.14583,-0.33098 0.24133,-0.55139 0.0955,-0.22041 0.20109,-0.46083 0.23409,-0.53433 0.033,-0.0735 0.0899,-0.20101 0.12712,-0.28371 0.0372,-0.0827 0.14552,-0.33046 0.24082,-0.55087 0.0953,-0.22041 0.27551,-0.63411 0.40049,-0.9188 0.12498,-0.2847 0.351,-0.80288 0.50178,-1.15187 0.15079,-0.34898 0.30836,-0.7097 0.35036,-0.8015 0.39263,-0.85882 0.95822,-2.16744 0.96222,-2.22674 0.002,-0.0308 0.0135,-0.0504 0.0258,-0.0424 l 5.1e-4,5.1e-4 c 2.5e-4,3e-5 8.2e-4,-4e-5 0.001,0 l 5.1e-4,5.2e-4 h 5.2e-4 l 5.2e-4,5.2e-4 h 5.1e-4 5.2e-4 5.2e-4 c 0.0118,-3e-4 0.0261,-0.0296 0.0341,-0.0703 0.0105,-0.0551 1.5e-4,-0.0857 -0.0202,-0.0827 l 0.007,-0.004 c -0.0122,0.001 -0.0277,0.0148 -0.0444,0.0413 -0.0147,0.0232 -0.15446,0.15479 -0.31058,0.29197 -0.15613,0.13718 -0.35567,0.31923 -0.44287,0.40463 -0.0778,0.0761 -0.14328,0.13346 -0.15658,0.13746 h -5.1e-4 -5.2e-4 -5.2e-4 v -5.2e-4 h -5.1e-4 v -5.2e-4 -5.1e-4 -5.2e-4 h -5.2e-4 -5.2e-4 -5.1e-4 -5.2e-4 c -0.0133,0.004 -0.0789,0.0598 -0.15658,0.13436 -0.0872,0.0838 -0.23721,0.22338 -0.33331,0.31058 -0.0961,0.0872 -0.16518,0.17427 -0.15348,0.19327 0.005,0.006 0.006,0.0125 0.006,0.0155 v 5.1e-4 5.2e-4 l -5.1e-4,5.2e-4 v 5.2e-4 h -5.2e-4 l -5.2e-4,5.1e-4 h -5.1e-4 -5.2e-4 -5.2e-4 -5.1e-4 l -5.2e-4,5.2e-4 c -0.004,0 -0.0106,-0.003 -0.0186,-0.008 -0.0314,-0.0194 -0.66626,0.52594 -1.37666,1.18236 -0.0497,0.0459 -0.18448,0.16614 -0.29921,0.26716 -0.11471,0.10103 -0.22548,0.19865 -0.24598,0.21705 -0.49792,0.44614 -0.61735,0.56476 -0.59945,0.59376 0.004,0.007 0.006,0.0125 0.006,0.0155 v 5.2e-4 5.1e-4 l -5.2e-4,5.2e-4 v 5.2e-4 h -5.2e-4 v 5.1e-4 h -5.1e-4 l -5.2e-4,5.2e-4 c -8.5e-4,2e-5 -0.003,-10e-6 -0.003,0 -0.004,-10e-4 -0.01,-0.003 -0.0165,-0.007 -0.0226,-0.009 -0.13292,0.0663 -0.24701,0.17105 -0.1159,0.10644 -0.33824,0.30605 -0.49403,0.44339 -0.15578,0.13733 -0.31475,0.27956 -0.35295,0.31626 -0.0382,0.0367 -0.1257,0.1157 -0.1943,0.1757 -0.0675,0.0591 -0.1139,0.12259 -0.1049,0.14159 0.003,0.005 0.004,0.009 0.004,0.0124 -3e-5,2.7e-4 5e-5,10e-4 0,0.002 -8e-5,2.3e-4 -4.2e-4,0.001 -5.2e-4,0.002 l -5.1e-4,5.2e-4 v 5.2e-4 5.1e-4 h -5.2e-4 v 5.2e-4 l -5.2e-4,5.2e-4 -5.1e-4,5.1e-4 c -0.005,0.002 -0.0143,0.002 -0.0258,-0.003 -0.0246,-0.009 -0.0745,0.0103 -0.11059,0.0439 -0.0361,0.0336 -0.23048,0.20949 -0.43253,0.39067 -0.20204,0.18117 -0.51313,0.4626 -0.69092,0.6258 -0.17779,0.16319 -0.38827,0.35275 -0.46767,0.42065 -0.0794,0.0679 -0.23447,0.20604 -0.34468,0.30747 -0.24093,0.22174 -0.45195,0.41062 -0.78341,0.70074 -0.13641,0.11939 -0.30894,0.27534 -0.38344,0.34674 -0.0745,0.0714 -0.19909,0.18208 -0.27699,0.24598 -0.0742,0.0609 -0.12766,0.12387 -0.12351,0.14418 2e-4,6.2e-4 7.1e-4,0.002 0.001,0.003 0.004,0.007 0.006,0.0136 0.005,0.0176 v 5.1e-4 5.2e-4 l -5.2e-4,5.2e-4 v 5.1e-4 5.2e-4 l -5.2e-4,5.2e-4 v 5.1e-4 l -5.1e-4,5.2e-4 -5.2e-4,5.2e-4 c -5e-4,8e-5 -6.9e-4,-1e-4 -0.001,0 h -5.2e-4 l -5.2e-4,5.1e-4 -5.1e-4,5.2e-4 h -5.2e-4 c -0.002,4.6e-4 -0.006,-1.6e-4 -0.01,-0.001 -0.0495,-0.0161 -0.34423,0.2469 -0.32143,0.2868 0.005,0.008 0.008,0.0146 0.008,0.0176 2e-5,0.001 0,0.002 0,0.002 h -5.2e-4 v 5.1e-4 5.2e-4 h -5.1e-4 v 5.2e-4 h -5.2e-4 -5.2e-4 -5.1e-4 l -5.2e-4,-5.2e-4 h -5.2e-4 -5.1e-4 -5.2e-4 c -0.002,-0.001 -0.005,-0.003 -0.009,-0.006 -0.0277,-0.025 -0.1166,0.0416 -0.4041,0.30386 -0.0931,0.0849 -0.27968,0.25216 -0.41497,0.37155 -0.13529,0.11939 -0.30223,0.26953 -0.37103,0.33383 -0.0688,0.0643 -0.21241,0.19384 -0.31936,0.28784 -0.16777,0.14756 -0.85889,0.76501 -0.96635,0.86351 -0.1882,0.17256 -0.66573,0.60204 -0.9648,0.86765 -0.72331,0.64237 -0.84878,0.76333 -0.82838,0.79633 0.004,0.005 0.005,0.0104 0.006,0.0134 v 5.2e-4 5.1e-4 l -5.2e-4,5.2e-4 v 5.2e-4 5.1e-4 l -5.1e-4,5.2e-4 -5.2e-4,5.2e-4 -5.2e-4,5.1e-4 h -5.1e-4 -5.2e-4 l -5.2e-4,5.2e-4 c -0.004,4.7e-4 -0.0124,-0.003 -0.0222,-0.009 -0.051,-0.0315 -0.17566,0.0769 -0.14676,0.12764 0.005,0.008 0.007,0.0151 0.007,0.0181 l -5.1e-4,5.1e-4 v 5.2e-4 5.2e-4 h -5.2e-4 l -5.2e-4,5.1e-4 h -5.1e-4 -5.2e-4 -5.2e-4 l -5.1e-4,-5.1e-4 c -0.002,-0.001 -0.006,-0.003 -0.0103,-0.007 h -5.1e-4 v -5.2e-4 h -5.2e-4 -5.2e-4 -5.1e-4 c -0.0422,0.003 -0.42968,0.31799 -0.58292,0.47594 -0.009,0.01 -0.16721,0.15155 -0.35088,0.31574 -0.18368,0.16418 -0.35345,0.3183 -0.37775,0.3421 -0.0624,0.0613 -0.11959,0.0537 -0.19069,-0.0248 -0.0339,-0.0374 -0.0824,-0.0606 -0.10749,-0.0506 -0.0126,0.005 -0.0224,0.006 -0.0274,0.004 0,0 -0.002,-0.002 -0.002,-0.002 l -5.2e-4,-5.2e-4 v -5.1e-4 c -6e-5,-2e-4 -4.8e-4,-0.001 -5.1e-4,-0.002 v -5.2e-4 c 1.4e-4,-0.003 0.002,-0.006 0.004,-0.0103 v -5.2e-4 c 3e-5,-2.5e-4 -4e-5,-8.2e-4 0,-0.001 l 5.2e-4,-5.1e-4 v -5.2e-4 -5.2e-4 -5.1e-4 c 5e-5,-2.2e-4 4.6e-4,-8.6e-4 5.2e-4,-0.001 v -5.1e-4 c 4.1e-4,-0.0335 -0.15179,-0.16541 -0.63407,-0.55242 -0.48959,-0.39288 -0.68436,-0.5362 -0.71986,-0.5302 h -5.1e-4 c -3.5e-4,1.1e-4 -0.001,4.7e-4 -0.002,5.1e-4 l -5.2e-4,5.2e-4 c -0.006,0.004 -0.0125,0.006 -0.0165,0.005 -8.6e-4,-2.4e-4 -0.002,-8.5e-4 -0.003,-10e-4 h -5.2e-4 l -5.1e-4,-5.1e-4 h -5.2e-4 l -5.2e-4,-5.2e-4 -5.1e-4,-5.2e-4 v -5.1e-4 l -5.2e-4,-5.2e-4 v -5.2e-4 l -5.2e-4,-5.1e-4 c -0.001,-0.003 -0.001,-0.008 5.2e-4,-0.014 v -5.1e-4 -5.2e-4 c 0.004,-0.0386 -0.33652,-0.33923 -0.74673,-0.65836 -0.14026,-0.10912 -0.43913,-0.34858 -0.66404,-0.53226 -0.22491,-0.18366 -0.49641,-0.40151 -0.60358,-0.48421 -0.10717,-0.0827 -0.34957,-0.27783 -0.53847,-0.43357 -0.1889,-0.15574 -0.64395,-0.52309 -1.0113,-0.81649 -0.36736,-0.29341 -0.67572,-0.54192 -0.68472,-0.55242 -0.009,-0.0105 -0.0842,-0.0713 -0.16691,-0.13487 -0.0827,-0.0636 -0.16665,-0.13075 -0.18655,-0.14935 -0.0374,-0.035 -0.0678,-0.0598 -0.63149,-0.51159 -0.38172,-0.30599 -1.48614,-1.19272 -1.53634,-1.23352 -0.0183,-0.015 -0.10127,-0.0794 -0.18397,-0.14314 -0.0827,-0.0638 -0.15791,-0.12438 -0.16691,-0.13488 -0.009,-0.0105 -0.15198,-0.12684 -0.3173,-0.25838 -0.16531,-0.13154 -0.32286,-0.25909 -0.35036,-0.28319 -0.24885,-0.21731 -0.40524,-0.32611 -0.43874,-0.30541 -0.009,0.006 -0.016,0.009 -0.0201,0.009 h -5.2e-4 l -5.1e-4,-5.2e-4 h -5.2e-4 -5.2e-4 v -5.1e-4 h -5.1e-4 v -5.2e-4 h -5.2e-4 v -5.2e-4 l -5.2e-4,-5.1e-4 v -5.2e-4 -5.2e-4 c 0,-0.003 0.002,-0.008 0.006,-0.0155 1.7e-4,-0.001 3.8e-4,-0.002 5.1e-4,-0.002 0.0122,-0.0422 -0.27477,-0.29727 -0.31987,-0.28267 -0.0142,0.004 -0.0253,-0.005 -0.0253,-0.0222 0,-0.0166 -0.2142,-0.19928 -0.47594,-0.40618 -0.26174,-0.20689 -0.62609,-0.50006 -0.80977,-0.65164 -0.27588,-0.22767 -0.59251,-0.48124 -1.26608,-1.01544 -0.0348,-0.0276 -0.11101,-0.0915 -0.17001,-0.14159 -0.0562,-0.0478 -0.11479,-0.0761 -0.13281,-0.0672 h -5.2e-4 -5.1e-4 v 5.2e-4 h -5.2e-4 c -0.003,0.003 -0.007,0.006 -0.009,0.007 h -5.2e-4 -5.2e-4 -5.1e-4 -5.2e-4 -5.2e-4 -5.1e-4 -5.2e-4 v -5.2e-4 h -5.2e-4 v -5.1e-4 -5.2e-4 -5.2e-4 c 0,-0.003 0.002,-0.009 0.007,-0.017 0.0114,-0.02 -0.04,-0.0803 -0.11421,-0.13384 -0.0742,-0.0535 -0.19845,-0.14964 -0.27595,-0.21394 -0.17132,-0.1421 -1.19095,-0.96418 -1.48621,-1.19838 -0.11543,-0.0916 -0.22337,-0.15889 -0.24237,-0.15089 h -5.1e-4 c -0.007,0.004 -0.0136,0.005 -0.0176,0.004 h -5.2e-4 l -5.2e-4,-5.2e-4 h -5.1e-4 l -5.2e-4,-5.1e-4 -5.2e-4,-5.2e-4 v -5.2e-4 l -5.1e-4,-5.1e-4 v -5.2e-4 h -5.2e-4 v -5.2e-4 -5.1e-4 l -5.2e-4,-5.2e-4 -5.1e-4,-5.2e-4 v -5.1e-4 c -0.001,-0.003 -9.7e-4,-0.007 10e-4,-0.0134 0.009,-0.0305 -0.76821,-0.68558 -1.19476,-1.00769 -0.10938,-0.0825 -0.20649,-0.15795 -0.21549,-0.16795 -0.0961,-0.10292 -0.45499,-0.37834 -0.48989,-0.37775 h -5.2e-4 -5.2e-4 v 5.1e-4 h -5.1e-4 l -5.2e-4,5.2e-4 v 5.2e-4 l -5.2e-4,5.1e-4 c -0.003,0.0224 0.0784,0.19927 0.18294,0.3974 0.10612,0.20126 0.27465,0.52582 0.37465,0.7214 0.0953,0.18642 0.18766,0.33241 0.21136,0.33641 h 5.2e-4 5.1e-4 5.2e-4 l 5.2e-4,-5.1e-4 h 5.1e-4 c 0.006,-0.004 0.01,-0.005 0.0129,-0.005 h 5.2e-4 v 5.2e-4 h 5.2e-4 5.1e-4 v 5.2e-4 h 5.2e-4 v 5.1e-4 l 5.2e-4,5.2e-4 v 5.2e-4 c 3e-5,2.6e-4 -1e-5,0.001 0,0.002 -3.8e-4,0.004 -0.003,0.011 -0.008,0.0191 v 5.2e-4 5.1e-4 l -5.2e-4,5.2e-4 c -2e-5,2.5e-4 5e-5,8.2e-4 0,0.001 v 5.2e-4 l -5.2e-4,5.2e-4 c -0.01,0.081 0.55907,1.18528 0.62477,1.21388 2.5e-4,2e-5 8.2e-4,0 0.001,0 h 5.1e-4 5.2e-4 5.2e-4 5.1e-4 l 5.2e-4,-5.2e-4 c 0.005,-0.003 0.01,-0.004 0.0129,-0.004 h 5.2e-4 5.1e-4 l 5.2e-4,5.2e-4 h 5.2e-4 v 5.2e-4 l 5.1e-4,5.1e-4 v 5.2e-4 5.2e-4 l 5.2e-4,5.1e-4 c 0,0.004 -0.002,0.0106 -0.008,0.0196 l -5.2e-4,5.2e-4 v 5.1e-4 5.2e-4 l -5.2e-4,5.2e-4 v 5.1e-4 c -0.004,0.0355 0.11706,0.30513 0.27596,0.61237 0.16403,0.31716 0.41811,0.80929 0.56482,1.09399 0.14671,0.28469 0.36491,0.70574 0.48472,0.93534 0.11981,0.2296 0.33693,0.65013 0.48266,0.93483 0.14574,0.2847 0.38968,0.75825 0.54209,1.05213 0.15241,0.29389 0.4011,0.77479 0.55242,1.06867 0.15132,0.29388 0.39493,0.76691 0.54157,1.05161 0.14665,0.2847 0.384,0.74646 0.52761,1.02578 0.13688,0.26623 0.26416,0.47783 0.29146,0.48783 h 5.2e-4 5.1e-4 5.2e-4 5.2e-4 5.1e-4 v -5.2e-4 c 0.006,-0.003 0.011,-0.005 0.014,-0.005 h 5.1e-4 5.2e-4 l 5.2e-4,5.2e-4 h 5.1e-4 l 5.2e-4,5.1e-4 h 5.2e-4 v 5.2e-4 5.2e-4 l 5.1e-4,5.1e-4 c 6e-5,10e-4 -3e-5,0.002 0,0.002 0,0.004 -0.002,0.0101 -0.007,0.0171 l -5.2e-4,5.2e-4 v 5.2e-4 c -3e-5,5e-4 -1e-5,6.9e-4 0,10e-4 v 5.2e-4 5.1e-4 c -0.003,0.036 0.12843,0.32715 0.29973,0.66198 0.55916,1.09299 0.98716,1.92311 1.11621,2.16473 0.12145,0.22739 0.40632,0.77958 0.93121,1.8035 0.14123,0.27551 0.40814,0.7937 0.59324,1.15187 0.68129,1.31828 0.85708,1.66069 1.06815,2.07894 0.12741,0.2525 0.22157,0.40421 0.2496,0.40566 h 5.2e-4 5.1e-4 l 5.2e-4,-5.1e-4 c 2.2e-4,-5e-5 0.001,-4.7e-4 0.002,-5.2e-4 h 5.2e-4 c 0.007,-0.005 0.0127,-0.007 0.016,-0.007 2.3e-4,0 0.001,-3e-5 0.002,0 h 5.1e-4 l 5.2e-4,5.1e-4 h 5.2e-4 l 5.1e-4,5.2e-4 v 5.2e-4 h 5.2e-4 v 5.1e-4 l 5.2e-4,5.2e-4 v 5.2e-4 c 5e-5,0.001 0,0.002 0,0.002 0,0.004 -0.002,0.0101 -0.007,0.0171 -0.0127,0.0206 0.007,0.0971 0.0445,0.17053 0.0374,0.0734 0.0682,0.1469 0.0682,0.1633 0,2.5e-4 4e-5,7.4e-4 0,0.001 -0.006,0.0206 -0.0988,0.11329 -0.21188,0.20929 -0.11666,0.0991 -0.56394,0.48892 -0.99373,0.86661 -0.42977,0.37769 -0.8181,0.71578 -0.863,0.75138 -0.0449,0.0356 -0.16511,0.14099 -0.26717,0.23409 -0.16675,0.15205 -0.67987,0.60189 -1.22266,1.07177 -0.10932,0.0946 -0.23819,0.20702 -0.28629,0.25012 -0.0481,0.0431 -0.16742,0.14622 -0.26562,0.22892 -0.0982,0.0827 -0.33012,0.28531 -0.51521,0.45062 -0.18509,0.16531 -0.42401,0.37587 -0.53123,0.46767 -0.10723,0.0918 -0.22068,0.18944 -0.25218,0.21704 -0.0315,0.0276 -0.15288,0.13256 -0.26976,0.23358 -0.11689,0.10103 -0.28081,0.24519 -0.36431,0.32039 -0.0835,0.0752 -0.19602,0.17285 -0.25012,0.21705 -0.0541,0.0442 -0.13008,0.11057 -0.16898,0.14727 -0.0389,0.0368 -0.18281,0.16483 -0.31936,0.28422 -0.13656,0.11939 -0.30839,0.27212 -0.38189,0.33952 -0.0735,0.0674 -0.17848,0.15717 -0.23358,0.19947 -0.1129,0.0866 -1.07293,0.91667 -1.25263,1.08314 -0.0643,0.0596 -0.2071,0.18708 -0.3173,0.28318 -0.11021,0.0961 -0.25299,0.22144 -0.31729,0.27854 -0.0643,0.0571 -0.26402,0.22968 -0.4439,0.38344 -0.17145,0.14655 -0.30661,0.274 -0.31161,0.293 l -5.2e-4,5.2e-4 5.2e-4,5.2e-4 v 5.1e-4 c 0.008,0.008 0.26858,-0.001 0.57774,-0.0217 0.30915,-0.0204 0.67461,-0.0442 0.81236,-0.0532 0.13777,-0.009 0.57351,-0.0382 0.96841,-0.0651 0.72531,-0.0496 1.13875,-0.077 2.50476,-0.1664 0.41327,-0.027 0.95454,-0.0651 1.20251,-0.0842 0.24796,-0.0191 0.80394,-0.0568 1.23558,-0.0842 0.91349,-0.0579 1.19032,-0.0799 1.29398,-0.1018 0.0516,-0.011 0.0749,1.2e-4 0.0749,0.0346 0,0.0276 -0.26069,0.56484 -0.57981,1.19424 -0.80142,1.58066 -0.82442,1.62666 -0.81442,1.64176 v 5.2e-4 l 5.2e-4,5.2e-4 v 5.1e-4 c 0.002,0.01 -0.0184,0.0419 -0.0465,0.0739 -0.03,0.0341 -0.0839,0.12184 -0.11937,0.19534 -0.0355,0.0735 -0.41341,0.82095 -0.84026,1.66139 -0.42738,0.84148 -0.76541,1.54573 -0.75241,1.56683 0.006,0.009 0.008,0.0162 0.007,0.0202 v 5.1e-4 5.2e-4 h -5.1e-4 v 5.2e-4 l -5.2e-4,5.1e-4 -5.2e-4,5.2e-4 h -5.1e-4 -5.2e-4 -5.2e-4 l -5.1e-4,5.2e-4 c -0.003,0 -0.007,-0.002 -0.0129,-0.005 h -5.2e-4 -5.2e-4 -5.1e-4 -5.2e-4 -5.2e-4 l -5.1e-4,5.1e-4 h -5.2e-4 c -0.0601,0.0349 -0.66274,1.19846 -0.65474,1.26866 0.002,0.0117 -0.001,0.0214 -0.004,0.0264 l -0.002,0.002 c -0.001,0.001 -0.002,0.002 -0.002,0.002 -10e-4,3.1e-4 -0.003,9.2e-4 -0.004,0.001 -0.003,0 -0.005,-0.001 -0.008,-0.003 h -5.2e-4 l -5.2e-4,-5.1e-4 h -5.1e-4 -5.2e-4 -5.2e-4 -5.1e-4 c -0.0436,0.002 -0.27077,0.4831 -0.24547,0.524 0.005,0.007 0.007,0.0125 0.007,0.0165 1e-5,5e-4 -1e-5,0.002 0,0.002 v 5.2e-4 5.1e-4 l -5.2e-4,5.2e-4 v 5.2e-4 h -5.2e-4 v 5.1e-4 h -5.1e-4 l -5.2e-4,5.2e-4 h -5.2e-4 -5.1e-4 c -0.003,0 -0.008,-6.5e-4 -0.014,-0.005 l -5.1e-4,-5.2e-4 h -5.2e-4 -5.2e-4 -5.1e-4 c -2.2e-4,5e-5 -8.6e-4,-5e-5 -0.001,0 l -5.1e-4,5.2e-4 c -0.0692,0.0321 -0.80845,1.47888 -0.79065,1.54978 l 5.1e-4,5.1e-4 c 0.006,0.009 0.009,0.0172 0.008,0.0212 h -5.1e-4 v 5.2e-4 5.1e-4 l -0.001,10e-4 v 5.1e-4 h -5.1e-4 -0.001 c -5e-4,4e-5 -6.9e-4,5.3e-4 -0.001,5.2e-4 l -5.2e-4,-5.2e-4 c -0.002,0 -0.006,-6.1e-4 -0.0114,-0.004 -0.017,-0.0105 -0.26549,0.44306 -0.55242,1.0082 -0.28694,0.56516 -0.74219,1.45956 -1.01182,1.98748 -0.26962,0.52791 -0.48232,0.98106 -0.47232,1.00666 0.006,0.016 0.005,0.0288 -10e-4,0.0351 -0.004,0.003 -0.009,0.005 -0.0155,0.004 -0.0501,-0.0117 -1.9068,3.63275 -2.25774,4.41162 a 29.275513,29.275513 0 0 0 0.12454,0.0889 z m 26.53378,-40.41407 c 0.0259,3e-5 0.039,0.0127 0.03,0.0279 -0.008,0.0143 -0.0219,0.0269 -0.0289,0.0279 -2e-4,2e-5 -8.1e-4,0 -10e-4,0 h -5.2e-4 -5.2e-4 c -0.007,-0.001 -0.0199,-0.0136 -0.0289,-0.0279 -0.009,-0.0153 0.004,-0.0279 0.03,-0.0279 z" /></g></g></svg>
